HIERARCHY
ROOT RootJoint
{
    OFFSET   0.000000   0.000000   0.000000
    CHANNELS 6 Xposition Yposition Zposition Xrotation Yrotation Zrotation
    JOINT pelvis_lowerback
    {
        OFFSET   0.000000   0.093605   0.000000
        CHANNELS 3 Xrotation Yrotation Zrotation
        JOINT lowerback_torso
        {
            OFFSET   0.000000   0.100000   0.000000
            CHANNELS 3 Xrotation Yrotation Zrotation
            JOINT torso_head
            {
                OFFSET   0.000000   0.282350   0.000000
                CHANNELS 3 Xrotation Yrotation Zrotation
                End Site
                {
                    OFFSET   0.000000   0.192650   0.000000
                }
            }
            JOINT rTorso_Clavicle
            {
                OFFSET  -0.001000   0.157500   0.000000
                CHANNELS 3 Xrotation Yrotation Zrotation
                JOINT rShoulder
                {
                    OFFSET  -0.117647   0.000000   0.000000
                    CHANNELS 3 Xrotation Yrotation Zrotation
                    JOINT rElbow
                    {
                        OFFSET  -0.245000   0.000000   0.000000
                        CHANNELS 3 Xrotation Yrotation Zrotation
                        JOINT rWrist
                        {
                            OFFSET  -0.240000   0.000000   0.000000
                            CHANNELS 3 Xrotation Yrotation Zrotation
                            End Site
                            {
                                OFFSET  -0.116353  -0.002500   0.000000
                            }
                        }
                    }
                }
            }
            JOINT lTorso_Clavicle
            {
                OFFSET   0.001000   0.157500   0.000000
                CHANNELS 3 Xrotation Yrotation Zrotation
                JOINT lShoulder
                {
                    OFFSET   0.117647   0.000000   0.000000
                    CHANNELS 3 Xrotation Yrotation Zrotation
                    JOINT lElbow
                    {
                        OFFSET   0.245000   0.000000   0.000000
                        CHANNELS 3 Xrotation Yrotation Zrotation
                        JOINT lWrist
                        {
                            OFFSET   0.240000   0.000000   0.000000
                            CHANNELS 3 Xrotation Yrotation Zrotation
                            End Site
                            {
                                OFFSET   0.116353  -0.002500   0.000000
                            }
                        }
                    }
                }
            }
        }
    }
    JOINT rHip
    {
        OFFSET  -0.100000  -0.051395   0.000000
        CHANNELS 3 Xrotation Yrotation Zrotation
        JOINT rKnee
        {
            OFFSET   0.000000  -0.410000   0.000000
            CHANNELS 3 Xrotation Yrotation Zrotation
            JOINT rAnkle
            {
                OFFSET   0.000000  -0.390000   0.000000
                CHANNELS 3 Xrotation Yrotation Zrotation
                JOINT rToeJoint
                {
                    OFFSET   0.000000  -0.050000   0.130000
                    CHANNELS 3 Xrotation Yrotation Zrotation
                    End Site
                    {
                        OFFSET  -0.010000   0.002000   0.060000
                    }
                }
            }
        }
    }
    JOINT lHip
    {
        OFFSET   0.100000  -0.051395   0.000000
        CHANNELS 3 Xrotation Yrotation Zrotation
        JOINT lKnee
        {
            OFFSET   0.000000  -0.410000   0.000000
            CHANNELS 3 Xrotation Yrotation Zrotation
            JOINT lAnkle
            {
                OFFSET   0.000000  -0.390000   0.000000
                CHANNELS 3 Xrotation Yrotation Zrotation
                JOINT lToeJoint
                {
                    OFFSET   0.000000  -0.050000   0.130000
                    CHANNELS 3 Xrotation Yrotation Zrotation
                    End Site
                    {
                        OFFSET   0.010000   0.002000   0.060000
                    }
                }
            }
        }
    }
}
MOTION
Frames: 17
Frame Time:   0.008333
 -2.656153   0.898041   5.108215  -4.475532   9.477964  -1.725235   8.438684   2.442547  -0.621824   1.669248  -0.399496   1.211494   0.095579  -0.010079   2.263260   0.154174  -0.705754   3.679386  -3.131986   7.840970  43.790228  -0.019111  74.585642   0.011973   0.309225   3.527746  -8.331788   2.796210   4.669754  -3.956271   5.709569  -0.953928 -46.958541  -0.044774 -74.119657  -0.035389   0.291950  -3.870084   9.226037  -2.693961   1.077750   3.482935  24.313905   0.003640   0.005656 -16.343610   2.312875  -0.747090  -1.343029  -0.003512  -0.016435 -20.474404  -3.150950   4.596607  62.961748  -0.029053  -0.038649 -11.860247   4.832509  -1.363019  -1.708586  -0.000653  -0.000724
 -2.658358   0.897197   5.103605  -4.520332   8.751852  -2.151025   8.413162   2.629346  -0.386396   1.858447  -0.200735   1.449579   0.164346   0.135016   2.256289   0.337263  -0.754000   3.976253  -2.758584   8.111869  44.067455  -0.020121  74.267256   0.012287   0.460311   3.570381  -8.250414   2.739145   4.945730  -3.906504   5.303757  -0.298090 -46.666716  -0.052898 -74.757058  -0.042764   0.328730  -3.822734   9.167582  -3.042723   1.164398   4.040851  24.225833   0.003153   0.004917 -16.252626   2.291474  -0.854320  -0.743193  -0.003125  -0.016272 -20.028274  -3.132020   4.901936  64.684595  -0.029104  -0.038798 -11.962902   4.837704  -1.224083  -1.615477  -0.000914  -0.001063
 -2.660505   0.896636   5.099170  -4.588155   8.297988  -2.625631   8.384238   2.705423  -0.095494   2.047537  -0.079439   1.734365   0.233233   0.268580   2.250265   0.552160  -0.845076   4.286084  -2.371556   8.332965  44.332652  -0.020836  73.947262   0.012384   0.594880   3.521028  -8.158003   2.661959   5.202385  -3.848318   4.898874   0.312718 -46.376612  -0.060215 -75.364988  -0.049619   0.374647  -3.850505   9.193301  -3.448130   1.391147   4.651247  24.324563   0.002403   0.003827 -15.888078   2.444677  -0.937825  -0.751600  -0.002495  -0.013018 -19.499588  -3.166476   5.212147  66.288406  -0.026634  -0.036421 -12.056149   4.842462  -1.092494  -1.510997  -0.001060  -0.001241
 -2.662539   0.896107   5.094822  -4.630585   7.972590  -3.064464   8.325405   2.751377   0.168126   2.212897   0.003783   2.019250   0.296670   0.393299   2.244497   0.780737  -0.958298   4.584946  -1.987314   8.524045  44.588093  -0.021024  73.642273   0.012250   0.715336   3.420609  -8.051095   2.578157   5.441503  -3.759798   4.507221   0.881090 -46.084553  -0.066411 -75.939871  -0.055532   0.425134  -3.920582   9.262892  -3.842963   1.550095   5.218731  24.395535   0.001851   0.003022 -15.539641   2.534029  -0.988063  -0.750438  -0.001997  -0.010415 -18.948369  -3.169081   5.463222  67.798903  -0.023116  -0.033294 -12.143032   4.846427  -0.970299  -1.414986  -0.001076  -0.001275
 -2.664461   0.895591   5.090486  -4.646488   7.725591  -3.480543   8.251702   2.785605   0.421680   2.352476   0.069577   2.297030   0.352498   0.510019   2.237960   1.005700  -1.075512   4.866997  -1.619643   8.695784  44.826991  -0.020796  73.353777   0.011966   0.826707   3.296811  -7.942087   2.491104   5.663852  -3.658156   4.130868   1.410438 -45.796687  -0.071067 -76.479779  -0.060120   0.477484  -4.009874   9.364353  -4.245889   1.663079   5.754747  24.450990   0.001433   0.002404 -15.196027   2.586250  -1.030292  -0.746540  -0.001600  -0.008331 -18.386551  -3.148582   5.679162  69.222724  -0.019400  -0.030075 -12.223618   4.849487  -0.856792  -1.325768  -0.001027  -0.001242
 -2.666282   0.895083   5.086129  -4.639943   7.537945  -3.876718   8.171888   2.813407   0.666807   2.471669   0.126014   2.566246   0.402162   0.619112   2.231923   1.219417  -1.188238   5.130655  -1.274297   8.854596  45.049044  -0.020277  73.083094   0.011612   0.931887   3.166956  -7.837252   2.403520   5.869813  -3.551535   3.771406   1.902671 -45.517673  -0.074104 -76.985804  -0.063295   0.530187  -4.108317   9.484571  -4.658970   1.739236   6.261607  24.495254   0.001113   0.001921 -14.854379   2.611273  -1.065497  -0.740769  -0.001284  -0.006665 -17.820893  -3.113890   5.869379  70.562627  -0.015850  -0.026985 -12.298339   4.851831  -0.751169  -1.242565  -0.000947  -0.001174
 -2.668010   0.894586   5.081737  -4.615201   7.400050  -4.253270   8.091518   2.837740   0.902401   2.575418   0.177064   2.825252   0.447030   0.720996   2.226865   1.419012  -1.292810   5.376307  -0.952891   9.003959  45.255276  -0.019571  72.830436   0.011242   1.032529   3.040792  -7.738060   2.317225   6.060099  -3.444495   3.429647   2.359833 -45.250103  -0.075640 -77.459635  -0.065147   0.582554  -4.211404   9.613438  -5.080503   1.783710   6.739611  24.530266   0.000868   0.001542 -14.513343   2.613958  -1.094094  -0.733637  -0.001031  -0.005332 -17.257539  -3.070157   6.039642  71.821785  -0.012611  -0.024086 -12.367679   4.853598  -0.652785  -1.165114  -0.000851  -0.001086
 -2.669567   0.894243   5.077639  -4.578447   7.181372  -4.623215   7.906347   2.865697   1.127622   2.717278   0.277044   3.102251   0.502299   0.787183   2.175596   1.635190  -1.417129   5.628411  -0.626005   9.182049  45.380893  -0.018220  72.613358   0.010444   1.155989   2.934820  -7.593026   2.285283   6.310851  -3.406744   3.073785   2.887111 -45.004103  -0.082809 -78.029853  -0.072577   0.650541  -4.261364   9.656654  -5.461124   1.961463   7.219519  24.450700   0.000737   0.001187 -14.119806   2.564359  -1.146738  -0.732536  -0.000826  -0.004265 -16.406089  -2.963867   6.244208  72.462401  -0.010327  -0.020664 -12.438201   4.826593  -0.500763  -1.076605  -0.000850  -0.001085
 -2.671014   0.893905   5.073511  -4.492166   6.994011  -4.994016   7.690293   2.876774   1.366118   2.819782   0.369664   3.374333   0.549483   0.846294   2.127016   1.842076  -1.547105   5.851370  -0.316777   9.341810  45.490138  -0.016665  72.412746   0.009479   1.277511   2.848058  -7.454642   2.263959   6.567509  -3.369510   2.746995   3.388921 -44.775238  -0.088165 -78.569861  -0.078282   0.720593  -4.347267   9.722892  -5.881865   2.109951   7.685129  24.352557   0.000634   0.000887 -13.718417   2.506053  -1.190554  -0.730570  -0.000661  -0.003412 -15.522181  -2.870874   6.458291  72.935736  -0.008440  -0.017489 -12.506630   4.800875  -0.358330  -0.984834  -0.000852  -0.001078
 -2.672370   0.893562   5.069296  -4.376903   6.849003  -5.352862   7.472988   2.877303   1.603587   2.897315   0.450244   3.638531   0.589223   0.900788   2.083804   2.034216  -1.674231   6.051080  -0.029299   9.487072  45.585277  -0.015160  72.225754   0.008579   1.394402   2.768515  -7.342083   2.243685   6.810575  -3.329693   2.439833   3.858490 -44.556691  -0.091421 -79.075045  -0.081947   0.789435  -4.439541   9.801164  -6.331014   2.223198   8.126189  24.253439   0.000542   0.000639 -13.316445   2.435083  -1.226236  -0.728056  -0.000529  -0.002730 -14.640357  -2.783051   6.672115  73.349131  -0.006848  -0.014721 -12.570769   4.776738  -0.225213  -0.896035  -0.000837  -0.001041
 -2.673639   0.893220   5.064977  -4.243425   6.746142  -5.693042   7.264339   2.871154   1.832860   2.960416   0.520482   3.891448   0.624322   0.951373   2.044966   2.211327  -1.794526   6.232273   0.236760   9.621342  45.669363  -0.013801  72.051490   0.007820   1.506731   2.694429  -7.250508   2.221988   7.035853  -3.288436   2.149002   4.295091 -44.348070  -0.092826 -79.547397  -0.083820   0.856542  -4.532666   9.883923  -6.798555   2.303867   8.537013  24.155307   0.000458   0.000431 -12.914164   2.350438  -1.254729  -0.725391  -0.000424  -0.002184 -13.772556  -2.696233   6.880954  73.732819  -0.005497  -0.012346 -12.630282   4.754076  -0.100947  -0.811658  -0.000802  -0.000975
 -2.674825   0.892886   5.060553  -4.097876   6.682849  -6.011630   7.068469   2.861267   2.050557   3.014847   0.582733   4.130929   0.656333   0.998458   2.009593   2.374291  -1.906428   6.398062   0.482735   9.746788  45.744751  -0.012608  71.889297   0.007209   1.614798   2.626166  -7.173046   2.198945   7.243339  -3.247360   1.873638   4.700092 -44.150002  -0.092696 -79.989121  -0.084209   0.921913  -4.626227   9.966396  -7.277679   2.355272   8.914922  24.057451   0.000382   0.000256 -12.510874   2.252669  -1.276503  -0.722827  -0.000340  -0.001747 -12.925647  -2.609430   7.083073  74.096109  -0.004349  -0.010316 -12.685374   4.732783   0.015009  -0.732241  -0.000753  -0.000890
 -2.675930   0.892562   5.056026  -3.944770   6.655915  -6.307576   6.887328   2.849998   2.255132   3.064109   0.639158   4.355892   0.686110   1.042352   1.977074   2.524126  -2.009483   6.550498   0.710062   9.864753  45.813016  -0.011570  71.738496   0.006728   1.718857   2.564025  -7.104838   2.175306   7.434303  -3.207765   1.613545   5.075616 -43.962939  -0.091335 -80.402138  -0.083405   0.985484  -4.719686  10.045617  -7.763234   2.380672   9.258925  23.959318   0.000312   0.000107 -12.106182   2.142892  -1.291935  -0.720556  -0.000272  -0.001398 -12.104182  -2.522850   7.278190  74.442144  -0.003373  -0.008578 -12.736374   4.712777   0.123201  -0.657980  -0.000693  -0.000792
 -2.676878   0.892485   5.051804  -3.803098   6.636838  -6.583803   6.634026   2.765187   2.440090   3.165524   0.723780   4.606400   0.725502   0.992540   1.937957   2.672886  -2.128306   6.632784   0.947607   9.964498  45.872563  -0.009218  71.742468   0.005355   1.806132   2.430137  -6.922348   2.260289   7.633499  -3.154932   1.458786   5.350377 -43.884307  -0.085547 -80.793204  -0.078225   1.043755  -4.782057  10.148597  -8.140894   2.490317   9.586320  23.689874   0.000209  -0.000351 -11.638998   1.957167  -1.303504  -0.719503  -0.000218  -0.001118 -10.965715  -2.398109   7.487519  73.823212  -0.002792  -0.006394 -12.748160   4.645443   0.243242  -0.588372  -0.000626  -0.000727
 -2.677747   0.892408   5.047468  -3.612996   6.665111  -6.863713   6.368045   2.651944   2.639165   3.233629   0.782011   4.844608   0.756603   0.941165   1.906756   2.805314  -2.252728   6.672676   1.164030  10.054956  45.912842  -0.007247  71.761568   0.004203   1.897827   2.371206  -6.761190   2.355737   7.821595  -3.110261   1.331045   5.602968 -43.825016  -0.079433 -81.162905  -0.072719   1.100601  -4.847966  10.165726  -8.557896   2.561228   9.898309  23.401523   0.000099  -0.000780 -11.159914   1.757019  -1.305401  -0.718160  -0.000175  -0.000894  -9.852399  -2.288071   7.715257  72.991970  -0.002517  -0.004744 -12.765361   4.581495   0.355430  -0.510659  -0.000559  -0.000657
 -2.678556   0.892300   5.042983  -3.407573   6.725854  -7.136104   6.120355   2.532578   2.835234   3.286460   0.824033   5.067964   0.782634   0.892466   1.880948   2.919762  -2.372987   6.688709   1.358877  10.136456  45.936753  -0.005668  71.782997   0.003275   1.989178   2.341800  -6.643040   2.444247   7.991437  -3.070362   1.211877   5.834399 -43.772558  -0.073340 -81.509695  -0.067221   1.156140  -4.917377  10.154329  -8.998118   2.601292  10.188917  23.123786  -0.000004  -0.001116 -10.680559   1.551158  -1.300854  -0.717184  -0.000140  -0.000716  -8.788905  -2.184201   7.949823  72.142703  -0.002436  -0.003635 -12.783277   4.521715   0.460196  -0.435883  -0.000491  -0.000574
 -2.679308   0.892163   5.038363  -3.201832   6.808721  -7.394742   5.896056   2.415018   3.019804   3.334884   0.856770   5.274861   0.806862   0.846879   1.858415   3.019868  -2.486050   6.691653   1.535502  10.211186  45.950402  -0.004411  71.804332   0.002531   2.078228   2.323688  -6.556073   2.524141   8.144219  -3.034057   1.098387   6.046549 -43.724364  -0.067393 -81.834478  -0.061853   1.210384  -4.989320  10.133147  -9.448088   2.618854  10.454228  22.860382  -0.000098  -0.001359 -10.203006   1.343945  -1.290793  -0.716802  -0.000112  -0.000572  -7.776060  -2.083250   8.182322  71.331580  -0.002439  -0.002911 -12.800321   4.465950   0.557983  -0.365635  -0.000425  -0.000488
